<svg width="1600" height="900" viewBox="0 0 1600 900" xmlns="http://www.w3.org/2000/svg" font-family="Arial, Helvetica, sans-serif">
  <defs>
    <linearGradient id="barGrad" x1="0" y1="0" x2="0" y2="1">
      <stop offset="0%" stop-color="#14847f"/>
      <stop offset="100%" stop-color="#0a4f4c"/>
    </linearGradient>
    <linearGradient id="areaGrad" x1="0" y1="0" x2="0" y2="1">
      <stop offset="0%" stop-color="#0f6e6a" stop-opacity="0.5"/>
      <stop offset="100%" stop-color="#0f6e6a" stop-opacity="0"/>
    </linearGradient>
  </defs>

  <rect width="1600" height="900" fill="#f4f7f8"/>

  <!-- top bar -->
  <rect x="0" y="0" width="1600" height="64" fill="#0e1618"/>
  <rect x="32" y="24" width="22" height="3" rx="1.5" fill="#c5e4e1"/>
  <rect x="32" y="31" width="22" height="3" rx="1.5" fill="#c5e4e1"/>
  <rect x="32" y="38" width="22" height="3" rx="1.5" fill="#c5e4e1"/>
  <rect x="1454" y="25" width="76" height="14" rx="7" fill="rgba(255,255,255,0.18)"/>
  <circle cx="1548" cy="32" r="15" fill="#0f6e6a"/>

  <!-- sidebar -->
  <rect x="0" y="64" width="230" height="836" fill="#182225"/>

  <!-- active nav row -->
  <rect x="0" y="100" width="230" height="48" fill="rgba(15,110,106,0.28)"/>
  <rect x="0" y="100" width="4" height="48" fill="#14b8ad"/>

  <!-- nav rows: icon square + label bar -->
  <g fill="#c5e4e1">
    <rect x="28" y="116" width="16" height="16" rx="4" fill="#14b8ad"/>
  </g>
  <text x="60" y="129" font-size="15" fill="#e8eef0" font-weight="600">Overview</text>

  <g>
    <rect x="28" y="172" width="16" height="16" rx="4" fill="rgba(197,228,225,0.25)"/>
    <text x="60" y="185" font-size="15" fill="#9fb0b3">Monitoring</text>

    <rect x="28" y="228" width="16" height="16" rx="4" fill="rgba(197,228,225,0.25)"/>
    <text x="60" y="241" font-size="15" fill="#9fb0b3">Automation</text>

    <rect x="28" y="284" width="16" height="16" rx="4" fill="rgba(197,228,225,0.25)"/>
    <text x="60" y="297" font-size="15" fill="#9fb0b3">Reports</text>

    <rect x="28" y="340" width="16" height="16" rx="4" fill="rgba(197,228,225,0.25)"/>
    <text x="60" y="353" font-size="15" fill="#9fb0b3">Devices</text>

    <rect x="28" y="396" width="16" height="16" rx="4" fill="rgba(197,228,225,0.25)"/>
    <text x="60" y="409" font-size="15" fill="#9fb0b3">Users &amp; roles</text>

    <rect x="28" y="452" width="16" height="16" rx="4" fill="rgba(197,228,225,0.25)"/>
    <text x="60" y="465" font-size="15" fill="#9fb0b3">Settings</text>
  </g>

  <!-- main header -->
  <text x="262" y="112" font-size="27" font-weight="700" fill="#0e1618">Operations dashboard</text>
  <text x="262" y="138" font-size="14" fill="#3d4f54" opacity="0.75">Illustrative view · sample data</text>

  <rect x="1414" y="90" width="156" height="34" rx="17" fill="#ffffff" stroke="rgba(14,22,24,0.12)"/>
  <text x="1440" y="112" font-size="13" fill="#3d4f54">This quarter</text>

  <!-- Panel A: bar chart -->
  <rect x="262" y="170" width="1306" height="250" rx="10" fill="#ffffff" stroke="rgba(14,22,24,0.1)"/>
  <text x="290" y="200" font-size="11" letter-spacing="1" fill="#0f6e6a" font-weight="700">OVERVIEW</text>
  <text x="290" y="222" font-size="17" font-weight="700" fill="#0e1618">Task throughput by team</text>

  <line x1="290" y1="380" x2="1540" y2="380" stroke="rgba(14,22,24,0.12)"/>
  <line x1="290" y1="330" x2="1540" y2="330" stroke="rgba(14,22,24,0.06)"/>
  <line x1="290" y1="280" x2="1540" y2="280" stroke="rgba(14,22,24,0.06)"/>

  <g>
    <rect x="300" y="330" width="46" height="50" rx="3" fill="url(#barGrad)"/>
    <rect x="356" y="250" width="46" height="130" rx="3" fill="#0a4f4c"/>
    <rect x="412" y="355" width="46" height="25" rx="3" fill="url(#barGrad)"/>
    <rect x="468" y="345" width="46" height="35" rx="3" fill="url(#barGrad)"/>
    <rect x="524" y="360" width="46" height="20" rx="3" fill="url(#barGrad)"/>
    <rect x="580" y="320" width="46" height="60" rx="3" fill="url(#barGrad)"/>
    <rect x="636" y="350" width="46" height="30" rx="3" fill="url(#barGrad)"/>
    <rect x="692" y="365" width="46" height="15" rx="3" fill="url(#barGrad)"/>
    <rect x="748" y="340" width="46" height="40" rx="3" fill="url(#barGrad)"/>
    <rect x="804" y="358" width="46" height="22" rx="3" fill="url(#barGrad)"/>
    <rect x="860" y="330" width="46" height="50" rx="3" fill="url(#barGrad)"/>
    <rect x="916" y="352" width="46" height="28" rx="3" fill="url(#barGrad)"/>
    <rect x="972" y="362" width="46" height="18" rx="3" fill="url(#barGrad)"/>
    <rect x="1028" y="342" width="46" height="38" rx="3" fill="url(#barGrad)"/>
    <rect x="1084" y="325" width="46" height="55" rx="3" fill="url(#barGrad)"/>
    <rect x="1140" y="356" width="46" height="24" rx="3" fill="url(#barGrad)"/>
    <rect x="1196" y="348" width="46" height="32" rx="3" fill="url(#barGrad)"/>
    <rect x="1252" y="364" width="46" height="16" rx="3" fill="url(#barGrad)"/>
    <rect x="1308" y="336" width="46" height="44" rx="3" fill="url(#barGrad)"/>
    <rect x="1364" y="358" width="46" height="22" rx="3" fill="url(#barGrad)"/>
    <rect x="1420" y="366" width="46" height="14" rx="3" fill="url(#barGrad)"/>
    <rect x="1476" y="350" width="46" height="30" rx="3" fill="url(#barGrad)"/>
  </g>
  <text x="379" y="245" font-size="13" font-weight="700" fill="#0a4f4c" text-anchor="middle">peak</text>

  <!-- Panel B: regional breakdown -->
  <rect x="262" y="444" width="636" height="272" rx="10" fill="#ffffff" stroke="rgba(14,22,24,0.1)"/>
  <text x="290" y="474" font-size="11" letter-spacing="1" fill="#0f6e6a" font-weight="700">SUMMARY</text>
  <text x="290" y="496" font-size="17" font-weight="700" fill="#0e1618">Regional breakdown</text>

  <g>
    <text x="290" y="546" font-size="14" fill="#3d4f54">Region A</text>
    <rect x="420" y="534" width="380" height="14" rx="7" fill="#e8eef0"/>
    <rect x="420" y="534" width="300" height="14" rx="7" fill="#0f6e6a"/>
    <circle cx="828" cy="541" r="4" fill="#0f6e6a"/><circle cx="842" cy="541" r="4" fill="#0f6e6a"/><circle cx="856" cy="541" r="4" fill="#0f6e6a"/><circle cx="870" cy="541" r="4" fill="rgba(15,110,106,0.25)"/>

    <text x="290" y="596" font-size="14" fill="#3d4f54">Region B</text>
    <rect x="420" y="584" width="380" height="14" rx="7" fill="#e8eef0"/>
    <rect x="420" y="584" width="210" height="14" rx="7" fill="#0f6e6a"/>
    <circle cx="828" cy="591" r="4" fill="#0f6e6a"/><circle cx="842" cy="591" r="4" fill="#0f6e6a"/><circle cx="856" cy="591" r="4" fill="rgba(15,110,106,0.25)"/><circle cx="870" cy="591" r="4" fill="rgba(15,110,106,0.25)"/>

    <text x="290" y="646" font-size="14" fill="#3d4f54">Region C</text>
    <rect x="420" y="634" width="380" height="14" rx="7" fill="#e8eef0"/>
    <rect x="420" y="634" width="140" height="14" rx="7" fill="#0f6e6a"/>
    <circle cx="828" cy="641" r="4" fill="#0f6e6a"/><circle cx="842" cy="641" r="4" fill="rgba(15,110,106,0.25)"/><circle cx="856" cy="641" r="4" fill="rgba(15,110,106,0.25)"/><circle cx="870" cy="641" r="4" fill="rgba(15,110,106,0.25)"/>
  </g>

  <!-- Panel C: distribution donut -->
  <rect x="930" y="444" width="638" height="272" rx="10" fill="#ffffff" stroke="rgba(14,22,24,0.1)"/>
  <text x="958" y="474" font-size="11" letter-spacing="1" fill="#0f6e6a" font-weight="700">DISTRIBUTION</text>
  <text x="958" y="496" font-size="17" font-weight="700" fill="#0e1618">Status mix</text>

  <g transform="translate(1060,600)">
    <circle r="72" fill="none" stroke="#e8eef0" stroke-width="26"/>
    <circle r="72" fill="none" stroke="#0f6e6a" stroke-width="26"
      stroke-dasharray="226 452" stroke-dashoffset="0" transform="rotate(-90)"/>
    <circle r="72" fill="none" stroke="#14b8ad" stroke-width="26"
      stroke-dasharray="113 452" stroke-dashoffset="-226" transform="rotate(-90)"/>
    <circle r="72" fill="none" stroke="#c5e4e1" stroke-width="26"
      stroke-dasharray="113 452" stroke-dashoffset="-339" transform="rotate(-90)"/>
  </g>

  <g font-size="14" fill="#3d4f54">
    <circle cx="1210" cy="560" r="6" fill="#0f6e6a"/>
    <text x="1226" y="565">Completed</text>
    <circle cx="1210" cy="592" r="6" fill="#14b8ad"/>
    <text x="1226" y="597">In progress</text>
    <circle cx="1210" cy="624" r="6" fill="#c5e4e1"/>
    <text x="1226" y="629">Pending</text>
  </g>

  <!-- Panel D: trend -->
  <rect x="262" y="742" width="1306" height="128" rx="10" fill="#ffffff" stroke="rgba(14,22,24,0.1)"/>
  <text x="290" y="770" font-size="11" letter-spacing="1" fill="#0f6e6a" font-weight="700">TREND</text>
  <text x="290" y="792" font-size="15" font-weight="700" fill="#0e1618">Delivery progress over time</text>

  <path d="M 290 850 L 290 830 C 400 800, 480 845, 580 815 C 680 785, 760 820, 860 800 C 960 780, 1040 810, 1140 790 C 1240 770, 1340 800, 1440 780 L 1540 775 L 1540 850 Z"
        fill="url(#areaGrad)"/>
  <path d="M 290 830 C 400 800, 480 845, 580 815 C 680 785, 760 820, 860 800 C 960 780, 1040 810, 1140 790 C 1240 770, 1340 800, 1440 780 L 1540 775"
        fill="none" stroke="#0f6e6a" stroke-width="3"/>

  <g font-size="12" fill="#3d4f54" opacity="0.7">
    <text x="290" y="866">Q1</text>
    <text x="670" y="866">Q2</text>
    <text x="1050" y="866">Q3</text>
    <text x="1430" y="866">Q4</text>
  </g>
</svg>
