<svg width="1500" height="600" viewBox="0 0 1500 600" xmlns="http://www.w3.org/2000/svg" font-family="Arial, Helvetica, sans-serif">
  <rect width="1500" height="600" fill="#ffffff"/>
  <rect x="1216" y="24" width="140" height="34" rx="6" fill="#ffffff" stroke="rgba(14,22,24,0.2)"/>
  <text x="1232" y="46" font-size="12" fill="#3d4f54">This period</text>
  <rect x="1366" y="24" width="110" height="34" rx="6" fill="#0f6e6a"/>
  <text x="1394" y="46" font-size="12" fill="#ffffff" font-weight="700">Apply</text>

  <g>
    <rect x="24" y="82" width="336" height="100" rx="6" fill="#f4f7f8"/>
    <text x="48" y="112" font-size="12" fill="#8a9a9d" letter-spacing="0.5">TOTAL REQUESTS</text>
    <text x="48" y="156" font-size="34" font-weight="700" fill="#0e1618">248</text>

    <rect x="376" y="82" width="336" height="100" rx="6" fill="#f4f7f8"/>
    <text x="400" y="112" font-size="12" fill="#8a9a9d" letter-spacing="0.5">SUCCESS</text>
    <text x="400" y="156" font-size="34" font-weight="700" fill="#0f6e6a">154</text>

    <rect x="728" y="82" width="336" height="100" rx="6" fill="#f4f7f8"/>
    <text x="752" y="112" font-size="12" fill="#8a9a9d" letter-spacing="0.5">IN PROGRESS</text>
    <text x="752" y="156" font-size="34" font-weight="700" fill="#8a5a1f">41</text>

    <rect x="1080" y="82" width="336" height="100" rx="6" fill="#f4f7f8"/>
    <text x="1104" y="112" font-size="12" fill="#8a9a9d" letter-spacing="0.5">REJECTED</text>
    <text x="1104" y="156" font-size="34" font-weight="700" fill="#8a3a34">24</text>
  </g>

  <rect x="24" y="212" width="700" height="360" rx="8" fill="#ffffff" stroke="rgba(14,22,24,0.1)"/>
  <text x="48" y="244" font-size="15" font-weight="700" fill="#0e1618">Request outcome distribution</text>
  <g transform="translate(190,400)">
    <circle r="100" fill="#e8eef0"/>
    <circle r="100" fill="none" stroke="#0f6e6a" stroke-width="0" />
    <path d="M0 0 L100 0 A100 100 0 1 1 -70.7 -70.7 Z" fill="#0f6e6a"/>
    <path d="M0 0 L-70.7 -70.7 A100 100 0 0 1 -31 -95.1 Z" fill="#14b8ad"/>
    <path d="M0 0 L-31 -95.1 A100 100 0 0 1 27 -96.3 Z" fill="#c5e4e1"/>
    <path d="M0 0 L27 -96.3 A100 100 0 0 1 100 -0.1 Z" fill="#dfe6e7"/>
  </g>
  <g font-size="13" fill="#3d4f54">
    <circle cx="440" cy="350" r="6" fill="#0f6e6a"/><text x="456" y="355">Success 62%</text>
    <circle cx="440" cy="382" r="6" fill="#14b8ad"/><text x="456" y="387">In progress 16%</text>
    <circle cx="440" cy="414" r="6" fill="#c5e4e1"/><text x="456" y="419">Rejected 10%</text>
    <circle cx="440" cy="446" r="6" fill="#dfe6e7"/><text x="456" y="451">N/A 12%</text>
  </g>

  <rect x="748" y="212" width="728" height="360" rx="8" fill="#ffffff" stroke="rgba(14,22,24,0.1)"/>
  <text x="772" y="244" font-size="15" font-weight="700" fill="#0e1618">Volume (last 6 months)</text>
  <g fill="url(#g1)">
    <defs>
      <linearGradient id="g1" x1="0" y1="0" x2="0" y2="1">
        <stop offset="0%" stop-color="#14847f"/>
        <stop offset="100%" stop-color="#0a4f4c"/>
      </linearGradient>
    </defs>
    <rect x="800" y="420" width="60" height="90" rx="3"/>
    <rect x="900" y="380" width="60" height="130" rx="3"/>
    <rect x="1000" y="440" width="60" height="70" rx="3"/>
    <rect x="1100" y="360" width="60" height="150" rx="3"/>
    <rect x="1200" y="400" width="60" height="110" rx="3"/>
    <rect x="1300" y="330" width="60" height="180" rx="3"/>
  </g>
  <g font-size="12" fill="#3d4f54">
    <text x="820" y="530">M1</text><text x="920" y="530">M2</text><text x="1020" y="530">M3</text><text x="1120" y="530">M4</text><text x="1220" y="530">M5</text><text x="1320" y="530">M6</text>
  </g>
</svg>
