<svg width="1700" height="680" viewBox="0 0 1700 680" xmlns="http://www.w3.org/2000/svg" font-family="Arial, Helvetica, sans-serif">
  <rect width="1700" height="680" fill="#ffffff"/>
  <text x="24" y="34" font-size="13" fill="#8a9a9d">Illustrative view · sample data</text>
  <rect x="1348" y="16" width="130" height="32" rx="6" fill="#0f6e6a"/>
  <text x="1364" y="37" font-size="12" fill="#ffffff" font-weight="700">+ Add device</text>
  <rect x="1488" y="16" width="90" height="32" rx="6" fill="#ffffff" stroke="rgba(14,22,24,0.2)"/>
  <text x="1506" y="37" font-size="12" fill="#3d4f54">Upload</text>
  <rect x="1588" y="16" width="88" height="32" rx="6" fill="#ffffff" stroke="rgba(14,22,24,0.2)"/>
  <text x="1604" y="37" font-size="12" fill="#3d4f54">Refresh</text>

  <rect x="24" y="66" width="1652" height="34" fill="#0f6e6a"/>
  <g font-size="12" font-weight="700" fill="#ffffff">
    <text x="40" y="88">DEVICE NAME</text>
    <text x="230" y="88">DEVICE IP</text>
    <text x="360" y="88">TYPE</text>
    <text x="470" y="88">PROTOCOL</text>
    <text x="600" y="88">OWNER</text>
    <text x="740" y="88">SERIES</text>
    <text x="880" y="88">STATUS</text>
    <text x="1010" y="88">TIMESTAMP</text>
    <text x="1220" y="88">MESSAGE</text>
    <text x="1480" y="88">ACTION</text>
  </g>

  <g font-size="13" fill="#0e1618">
    <text x="40" y="132" font-weight="700">Node-01</text><text x="230" y="132" fill="#3d4f54">192.0.2.11</text><text x="360" y="132" fill="#3d4f54">Router</text><text x="470" y="132" fill="#3d4f54">SSH</text><text x="600" y="132" fill="#3d4f54">svc-account</text><text x="740" y="132" fill="#3d4f54">Model X100</text>
    <rect x="878" y="118" width="66" height="22" rx="11" fill="#dfeceb"/><text x="890" y="134" font-size="11" fill="#0a4f4c">Active</text>
    <text x="1010" y="132" fill="#3d4f54">06:00:01</text><text x="1220" y="132" fill="#3d4f54">Collection OK</text>

    <text x="40" y="176" font-weight="700">Node-02</text><text x="230" y="176" fill="#3d4f54">192.0.2.12</text><text x="360" y="176" fill="#3d4f54">Switch</text><text x="470" y="176" fill="#3d4f54">HTTPS</text><text x="600" y="176" fill="#3d4f54">svc-account</text><text x="740" y="176" fill="#3d4f54">Model X200</text>
    <rect x="878" y="162" width="66" height="22" rx="11" fill="#dfeceb"/><text x="890" y="178" font-size="11" fill="#0a4f4c">Active</text>
    <text x="1010" y="176" fill="#3d4f54">06:00:03</text><text x="1220" y="176" fill="#3d4f54">Collection OK</text>

    <text x="40" y="220" font-weight="700">Node-03</text><text x="230" y="220" fill="#3d4f54">198.51.100.5</text><text x="360" y="220" fill="#3d4f54">Router</text><text x="470" y="220" fill="#3d4f54">SSH</text><text x="600" y="220" fill="#3d4f54">svc-account</text><text x="740" y="220" fill="#3d4f54">Model A9K</text>
    <rect x="878" y="206" width="66" height="22" rx="11" fill="#dfeceb"/><text x="890" y="222" font-size="11" fill="#0a4f4c">Active</text>
    <text x="1010" y="220" fill="#3d4f54">05:59:48</text><text x="1220" y="220" fill="#3d4f54">Collection OK</text>

    <text x="40" y="264" font-weight="700">Node-04</text><text x="230" y="264" fill="#3d4f54">198.51.100.8</text><text x="360" y="264" fill="#3d4f54">Fabric switch</text><text x="470" y="264" fill="#3d4f54">SSH</text><text x="600" y="264" fill="#3d4f54">svc-account</text><text x="740" y="264" fill="#3d4f54">Model N93</text>
    <rect x="878" y="250" width="66" height="22" rx="11" fill="#dfeceb"/><text x="890" y="266" font-size="11" fill="#0a4f4c">Active</text>
    <text x="1010" y="264" fill="#3d4f54">05:59:55</text><text x="1220" y="264" fill="#3d4f54">Collection OK</text>

    <text x="40" y="308" font-weight="700">Node-05</text><text x="230" y="308" fill="#3d4f54">203.0.113.9</text><text x="360" y="308" fill="#3d4f54">Fabric controller</text><text x="470" y="308" fill="#3d4f54">HTTPS</text><text x="600" y="308" fill="#3d4f54">svc-account</text><text x="740" y="308" fill="#3d4f54">Model APIC</text>
    <rect x="878" y="294" width="80" height="22" rx="11" fill="#f3e6cf"/><text x="890" y="310" font-size="11" fill="#8a5a1f">Degraded</text>
    <text x="1010" y="308" fill="#3d4f54">05:58:12</text><text x="1220" y="308" fill="#3d4f54">Partial inventory sync</text>

    <text x="40" y="352" font-weight="700">Node-06</text><text x="230" y="352" fill="#3d4f54">203.0.113.14</text><text x="360" y="352" fill="#3d4f54">Load balancer</text><text x="470" y="352" fill="#3d4f54">HTTPS</text><text x="600" y="352" fill="#3d4f54">svc-account</text><text x="740" y="352" fill="#3d4f54">Model LB5</text>
    <rect x="878" y="338" width="66" height="22" rx="11" fill="#dfeceb"/><text x="890" y="354" font-size="11" fill="#0a4f4c">Active</text>
    <text x="1010" y="352" fill="#3d4f54">06:00:08</text><text x="1220" y="352" fill="#3d4f54">Collection OK</text>

    <text x="40" y="396" font-weight="700">Node-07</text><text x="230" y="396" fill="#3d4f54">192.0.2.99</text><text x="360" y="396" fill="#3d4f54">Aggregator</text><text x="470" y="396" fill="#3d4f54">SSH</text><text x="600" y="396" fill="#3d4f54">svc-account</text><text x="740" y="396" fill="#3d4f54">Model Cat</text>
    <rect x="878" y="382" width="66" height="22" rx="11" fill="#f2dede"/><text x="890" y="398" font-size="11" fill="#8a3a34">Offline</text>
    <text x="1010" y="396" fill="#3d4f54">22:11:04</text><text x="1220" y="396" fill="#3d4f54">Timeout</text>

    <text x="40" y="440" font-weight="700">Node-08</text><text x="230" y="440" fill="#3d4f54">192.0.2.13</text><text x="360" y="440" fill="#3d4f54">Router</text><text x="470" y="440" fill="#3d4f54">NETCONF</text><text x="600" y="440" fill="#3d4f54">svc-account</text><text x="740" y="440" fill="#3d4f54">Model X100</text>
    <rect x="878" y="426" width="66" height="22" rx="11" fill="#dfeceb"/><text x="890" y="442" font-size="11" fill="#0a4f4c">Active</text>
    <text x="1010" y="440" fill="#3d4f54">06:00:02</text><text x="1220" y="440" fill="#3d4f54">Peer OK</text>
  </g>
  <g stroke="rgba(14,22,24,0.08)">
    <line x1="24" y1="112" x2="1676" y2="112"/>
    <line x1="24" y1="156" x2="1676" y2="156"/>
    <line x1="24" y1="200" x2="1676" y2="200"/>
    <line x1="24" y1="244" x2="1676" y2="244"/>
    <line x1="24" y1="288" x2="1676" y2="288"/>
    <line x1="24" y1="332" x2="1676" y2="332"/>
    <line x1="24" y1="376" x2="1676" y2="376"/>
    <line x1="24" y1="420" x2="1676" y2="420"/>
    <line x1="24" y1="460" x2="1676" y2="460"/>
  </g>
  <text x="24" y="500" font-size="13" fill="#3d4f54">Total: 86</text>
</svg>
