<svg width="1200" height="1160" viewBox="0 0 1200 1160" xmlns="http://www.w3.org/2000/svg" font-family="Arial, Helvetica, sans-serif">
  <rect width="1200" height="1160" fill="#ffffff"/>
  <text x="32" y="46" font-size="22" font-weight="700" fill="#0e1618">Path analysis report</text>
  <rect x="360" y="24" width="170" height="32" rx="6" fill="#ffffff" stroke="#0f6e6a"/>
  <text x="378" y="45" font-size="12" fill="#0f6e6a" font-weight="700">Refresh result</text>
  <rect x="546" y="24" width="180" height="32" rx="6" fill="#ffffff" stroke="#0f6e6a"/>
  <text x="562" y="45" font-size="12" fill="#0f6e6a" font-weight="700">Reanalyze path</text>

  <rect x="0" y="72" width="1200" height="32" fill="#f4f7f8"/>
  <text x="32" y="93" font-size="12" fill="#3d4f54">Job ID: PC-2026-00482</text>
  <text x="260" y="93" font-size="12" fill="#3d4f54">Executed: just now</text>
  <text x="520" y="93" font-size="12" fill="#0a4f4c" font-weight="700">Status: Completed / Dry-run success</text>

  <rect x="0" y="112" width="1200" height="44" fill="#f4f7f8"/>
  <text x="32" y="140" font-size="16" font-weight="700" fill="#0e1618">Request No.  REQ-2026-0118</text>

  <rect x="0" y="164" width="1200" height="36" fill="#fbfbfb"/>
  <text x="32" y="187" font-size="12" fill="#3d4f54">Rule ID: R-001</text>
  <text x="220" y="187" font-size="12" fill="#3d4f54">Location: preview</text>
  <text x="420" y="187" font-size="12" fill="#0a4f4c">PC status: OK</text>
  <text x="580" y="187" font-size="12" fill="#0a4f4c">Dry-run status: OK</text>

  <text x="32" y="238" font-size="12" fill="#3d4f54">Source: 192.0.2.16/32   Destination: 203.0.113.20/32   Port: TCP/443</text>

  <text x="32" y="284" font-size="15" font-weight="700" fill="#0e1618">Analyzed path</text>
  <text x="32" y="312" font-size="12" fill="#8a9a9d">Source — Destination</text>
  <text x="32" y="336" font-size="13" fill="#3d4f54">SRC: 192.0.2.16/32  →  DST: 203.0.113.20/32   Proto/Port: TCP / 443</text>

  <g font-size="12" font-weight="700" fill="#ffffff" text-anchor="middle">
    <rect x="60" y="366" width="64" height="34" rx="6" fill="#0f6e6a"/><text x="92" y="388">Node A</text>
    <rect x="212" y="366" width="64" height="34" rx="6" fill="#14847f"/><text x="244" y="388">Node B</text>
    <rect x="364" y="366" width="64" height="34" rx="6" fill="#0a4f4c"/><text x="396" y="388">Node C</text>
    <rect x="516" y="366" width="64" height="34" rx="6" fill="#14847f"/><text x="548" y="388">Node D</text>
    <rect x="668" y="366" width="64" height="34" rx="6" fill="#0a4f4c"/><text x="700" y="388">Node E</text>
  </g>
  <g stroke="#8a9a9d" stroke-width="2" marker-end="none">
    <line x1="124" y1="383" x2="212" y2="383"/>
    <line x1="276" y1="383" x2="364" y2="383"/>
    <line x1="428" y1="383" x2="516" y2="383"/>
    <line x1="580" y1="383" x2="668" y2="383"/>
  </g>

  <text x="32" y="440" font-size="14" font-weight="700" fill="#0e1618">Paths</text>
  <rect x="32" y="454" width="1136" height="32" fill="#0e1618"/>
  <g font-size="11" font-weight="700" fill="#ffffff">
    <text x="48" y="475">DEVICE</text>
    <text x="150" y="475">CONTEXT</text>
    <text x="260" y="475">VRF</text>
    <text x="350" y="475">INGRESS</text>
    <text x="500" y="475">EGRESS</text>
    <text x="650" y="475">TYPE</text>
    <text x="800" y="475">PROFILE</text>
    <text x="980" y="475">MPLS</text>
  </g>
  <g font-size="12" fill="#3d4f54">
    <text x="48" y="510">Node A</text><text x="150" y="510">default</text><text x="260" y="510">—</text><text x="350" y="510">eth0/1</text><text x="500" y="510">eth0/2</text><text x="650" y="510">Router</text><text x="800" y="510">—</text><text x="980" y="510">yes</text>
    <text x="48" y="542">Node B</text><text x="150" y="542">vrf-a</text><text x="260" y="542">VRF-A</text><text x="350" y="542">eth1/1</text><text x="500" y="542">eth1/2</text><text x="650" y="542">Switch</text><text x="800" y="542">—</text><text x="980" y="542">—</text>
    <text x="48" y="574">Node C</text><text x="150" y="574">vsys1</text><text x="260" y="574">—</text><text x="350" y="574">eth1/3</text><text x="500" y="574">eth1/7</text><text x="650" y="574">Gateway</text><text x="800" y="574">baseline</text><text x="980" y="574">—</text>
    <text x="48" y="606">Node D</text><text x="150" y="606">prod</text><text x="260" y="606">common</text><text x="350" y="606">po101</text><text x="500" y="606">po205</text><text x="650" y="606">Fabric</text><text x="800" y="606">—</text><text x="980" y="606">—</text>
    <text x="48" y="638">Node E</text><text x="150" y="638">root</text><text x="260" y="638">—</text><text x="350" y="638">port3</text><text x="500" y="638">port8</text><text x="650" y="638">Gateway</text><text x="800" y="638">standard</text><text x="980" y="638">—</text>
  </g>
  <g stroke="rgba(14,22,24,0.08)">
    <line x1="32" y1="494" x2="1168" y2="494"/>
    <line x1="32" y1="526" x2="1168" y2="526"/>
    <line x1="32" y1="558" x2="1168" y2="558"/>
    <line x1="32" y1="590" x2="1168" y2="590"/>
    <line x1="32" y1="622" x2="1168" y2="622"/>
    <line x1="32" y1="654" x2="1168" y2="654"/>
  </g>

  <text x="32" y="716" font-size="14" font-weight="700" fill="#0e1618">Dry-run results</text>

  <rect x="32" y="736" width="1136" height="190" rx="6" fill="#f4f7f8" stroke="rgba(14,22,24,0.08)"/>
  <text x="52" y="764" font-size="13" font-weight="700" fill="#0e1618">Node C</text>
  <rect x="52" y="778" width="70" height="22" rx="4" fill="#dfeceb"/><text x="64" y="794" font-size="11" fill="#0a4f4c">SUCCESS</text>
  <g font-size="12" fill="#3d4f54" font-family="monospace">
    <text x="52" y="822">device: Node-C</text>
    <text x="52" y="844">action: apply configuration change</text>
    <text x="52" y="866">change-id: REQ-2026-0118-R001</text>
    <text x="52" y="888">scope: [object-a, object-b]</text>
    <text x="52" y="910">dry-run: OK — no conflict detected</text>
  </g>

  <rect x="32" y="944" width="1136" height="190" rx="6" fill="#f4f7f8" stroke="rgba(14,22,24,0.08)"/>
  <text x="52" y="972" font-size="13" font-weight="700" fill="#0e1618">Node E</text>
  <rect x="52" y="986" width="70" height="22" rx="4" fill="#dfeceb"/><text x="64" y="1002" font-size="11" fill="#0a4f4c">SUCCESS</text>
  <g font-size="12" fill="#3d4f54" font-family="monospace">
    <text x="52" y="1030">device: Node-E</text>
    <text x="52" y="1052">action: apply configuration change</text>
    <text x="52" y="1074">change-id: REQ-2026-0118-R001</text>
    <text x="52" y="1096">scope: [object-c]</text>
    <text x="52" y="1118">dry-run: OK — change would take effect</text>
  </g>
</svg>
