<svg width="1100" height="1000" viewBox="0 0 1100 1000" xmlns="http://www.w3.org/2000/svg" font-family="Arial, Helvetica, sans-serif">
  <rect width="1100" height="1000" fill="#0e1618"/>
  <text x="62" y="70" font-size="24" font-weight="700" fill="#e8eef0">⚠ Error analysis report</text>
  <line x1="62" y1="96" x2="1038" y2="96" stroke="rgba(255,255,255,0.1)"/>

  <g font-size="14" fill="#c9d4d6">
    <text x="62" y="140">Generated</text><text x="260" y="140" fill="#e8eef0">Just now</text>
    <text x="62" y="172">Service</text><rect x="260" y="158" width="100" height="22" rx="4" fill="rgba(255,255,255,0.08)"/><text x="272" y="174" fill="#c9d4d6" font-size="12">service-a</text>
    <text x="62" y="204">Engine</text><rect x="260" y="190" width="90" height="22" rx="4" fill="rgba(197,228,225,0.15)"/><text x="272" y="206" fill="#c5e4e1" font-size="12">Model A</text>
    <text x="62" y="236">Occurred</text><text x="260" y="236" fill="#e8eef0">3 minutes ago</text>
    <text x="62" y="268">Hash</text><rect x="260" y="254" width="90" height="22" rx="4" fill="rgba(255,255,255,0.08)"/><text x="272" y="270" fill="#c9d4d6" font-size="12">a3f91c82</text>
    <text x="62" y="300">Severity</text><text x="260" y="300" fill="#e07a6d" font-weight="700">Critical</text>
  </g>
  <line x1="62" y1="330" x2="1038" y2="330" stroke="rgba(255,255,255,0.1)"/>

  <text x="62" y="368" font-size="16" font-weight="700" fill="#e8eef0">📍 Error message</text>
  <text x="62" y="398" font-size="13" font-weight="700" fill="#c9d4d6">Core exception</text>
  <rect x="62" y="412" width="976" height="90" rx="6" fill="#182225"/>
  <text x="80" y="440" font-size="12" font-family="monospace" fill="#e2a53a">NullReferenceException: object "context" was not initialized</text>
  <text x="96" y="462" font-size="12" font-family="monospace" fill="#9fb0b3">at com.example.service.Handler.process(Handler.java:214)</text>
  <text x="96" y="482" font-size="12" font-family="monospace" fill="#9fb0b3">at com.example.service.Controller.handle(Controller.java:88)</text>

  <text x="62" y="546" font-size="16" font-weight="700" fill="#e8eef0">🗒 Log context</text>
  <rect x="62" y="562" width="976" height="150" rx="6" fill="#182225"/>
  <g font-size="12" font-family="monospace" fill="#9fb0b3">
    <text x="80" y="588">08:46:57.812 INFO  [worker-4] Controller - handle requestId=req_9182</text>
    <text x="80" y="610">08:46:57.901 INFO  [worker-4] Service - resolving context for session=sess_77a1</text>
    <text x="80" y="632" fill="#e07a6d">08:46:58.014 ERROR [worker-4] Service - process failed</text>
    <text x="80" y="654" fill="#e2a53a">NullReferenceException: object "context" was not initialized</text>
    <text x="80" y="678" fill="#e07a6d">08:46:58.020 WARN  [worker-4] ExceptionHandler - returning 500 for requestId=req_9182</text>
  </g>

  <text x="62" y="754" font-size="16" font-weight="700" fill="#e8eef0">🤖 AI analysis</text>
  <text x="62" y="790" font-size="13" font-weight="700" fill="#c9d4d6">Likely root cause</text>
  <rect x="62" y="806" width="976" height="130" rx="6" fill="#182225"/>
  <text x="80" y="834" font-size="13" fill="#c9d4d6" style="white-space:pre">Context object was referenced before initialization completed. Common</text>
  <text x="80" y="858" font-size="13" fill="#c9d4d6">triggers: expired session, slow upstream auth response, or a race</text>
  <text x="80" y="882" font-size="13" fill="#c9d4d6">condition in the async callback that populates the context.</text>
</svg>
